<?xml version="1.0" encoding="UTF-8"?>
<svg version="1.1" xmlns="http://www.w3.org/2000/svg" width="2532" height="1014">
<path d="M0 0 C38.28 0 76.56 0 116 0 C116.33 117.48 116.66 234.96 117 356 C119.97 350.72 122.94 345.44 126 340 C132.24610219 330.67140583 138.84299713 322.45183385 146.63183594 314.41943359 C147.82774879 313.17870602 148.99818703 311.91352567 150.1640625 310.64453125 C160.61102415 299.57236533 173.75223571 290.38477937 187 283 C188.12051758 282.37013184 188.12051758 282.37013184 189.26367188 281.72753906 C223.74204309 262.52594813 261.91385005 253.04002051 301 249 C301.89074219 248.90428711 302.78148437 248.80857422 303.69921875 248.70996094 C333.21079185 245.97631921 364.72344671 246.28439887 394 251 C395.85963379 251.29801514 395.85963379 251.29801514 397.75683594 251.60205078 C449.09408192 260.13269845 493.46655503 279.84991628 535 311 C535.33 209.36 535.66 107.72 536 3 C574.28 3 612.56 3 652 3 C652.33 120.48 652.66 237.96 653 359 C655.97 353.72 658.94 348.44 662 343 C664.92594898 338.86187216 667.81923555 334.9212047 671 331 C671.43602539 330.46246094 671.87205078 329.92492187 672.32128906 329.37109375 C712.77752001 279.79999059 774.08673475 258.80385842 836 252 C836.94464111 251.8954248 837.88928223 251.79084961 838.86254883 251.68310547 C850.55373796 250.59269507 862.33147376 250.75610867 874.0625 250.75 C875.22506317 250.74932526 876.38762634 250.74865051 877.5854187 250.74795532 C894.91456673 250.76393432 911.86128746 251.21421181 929 254 C930.65563965 254.25740967 930.65563965 254.25740967 932.34472656 254.52001953 C988.35795684 263.40558867 1040.5323041 286.38829589 1082.546875 324.76953125 C1084.14506558 326.22266313 1085.75909256 327.65862443 1087.390625 329.07421875 C1098.74261885 338.97974887 1108.60298624 350.22653834 1117.66601562 362.23339844 C1118.55033722 363.40450954 1119.43961989 364.57189205 1120.33398438 365.73535156 C1176.20437265 438.44841892 1198.07375379 536.44776235 1195 627 C1194.96712891 627.9717215 1194.96712891 627.9717215 1194.93359375 628.96307373 C1192.02946795 712.3157831 1172.9641103 797.84964359 1121 865 C1120.32710937 865.87398437 1119.65421875 866.74796875 1118.9609375 867.6484375 C1117.00913951 870.13035347 1115.01700087 872.57076538 1113 875 C1112.57138672 875.51884766 1112.14277344 876.03769531 1111.70117188 876.57226562 C1102.0326169 888.23100994 1091.71036405 899.35376643 1080 909 C1079.27949463 909.60714844 1079.27949463 909.60714844 1078.54443359 910.2265625 C1038.1072344 944.21760355 989.1567433 964.74401788 937.25 973.25 C935.87050171 973.47671387 935.87050171 973.47671387 934.46313477 973.70800781 C916.09088013 976.52399563 897.81645961 977.37662526 879.25 977.3125 C877.60040283 977.30976578 877.60040283 977.30976578 875.91748047 977.30697632 C860.06385456 977.26275602 844.63515454 976.82546428 829 974 C827.97261719 973.82839355 826.94523437 973.65678711 825.88671875 973.47998047 C795.48834499 968.3877978 766.77829708 959.28397637 739 946 C738.34080566 945.68482422 737.68161133 945.36964844 737.00244141 945.04492188 C719.88980985 936.71572512 704.18006395 925.49322459 689.60205078 913.33007812 C688.10102175 912.08387176 686.58043358 910.86133052 685.05859375 909.640625 C669.32511039 897.01802953 654.40831096 882.92839918 642 867 C641.12142527 865.91013941 640.24113138 864.82166308 639.359375 863.734375 C629.02113739 850.9092886 620.33236446 837.18917137 612 823 C609.49861998 826.12467472 607.48086786 829.45973829 605.43505859 832.88842773 C594.78929737 850.72036183 582.69080028 867.02122767 568.546875 882.23046875 C566.50935176 884.44611902 564.55517586 886.69238877 562.625 889 C545.54239093 908.59833772 522.44786442 924.24124901 500 937 C498.30423828 937.98033203 498.30423828 937.98033203 496.57421875 938.98046875 C455.53412287 962.13765446 405.50903978 973.9904785 358.5859375 974.203125 C357.54105667 974.21018463 356.49617584 974.21724426 355.41963196 974.22451782 C312.1805011 974.45046052 312.1805011 974.45046052 293 971 C291.82356934 970.79600586 290.64713867 970.59201172 289.43505859 970.38183594 C244.34372098 962.41738062 199.08564794 947.03728204 163 918 C161.48599609 916.79150391 161.48599609 916.79150391 159.94140625 915.55859375 C131.57875808 892.4715992 131.57875808 892.4715992 127 882 C127.18005549 876.97922199 129.26220611 873.5299888 131.9375 869.4375 C147.15804373 844.98714945 154.48719898 819.04763784 160 791 C163.58134352 792.65784912 165.2951897 794.33031424 167.6875 797.5 C200.01680217 839.05774018 245.37913948 862.38427865 297.296875 869.45703125 C341.88393918 874.86701742 388.22425207 869.74892086 428 848 C429.06734375 847.42378906 430.1346875 846.84757813 431.234375 846.25390625 C441.69933725 840.38430955 450.97157585 833.17886454 459.765625 825.04296875 C461.64950698 823.32046827 463.57134631 821.71883633 465.5625 820.125 C470.37998475 816.03126883 474.08918321 810.93280724 478 806 C478.63679688 805.25234375 479.27359375 804.5046875 479.9296875 803.734375 C509.70789959 768.39591584 523.73818741 720.80200902 531 676 C531.19754883 674.84870605 531.39509766 673.69741211 531.59863281 672.51123047 C535.0322679 651.74363884 535.42344548 630.91764615 535.49129868 609.91571045 C535.49982647 607.79319071 535.51501304 605.67080987 535.53164673 603.54833984 C536.00626106 533.77045816 516.5553621 460.9266745 467.36474609 409.43212891 C466.05051533 408.05300947 464.75339339 406.65764787 463.45703125 405.26171875 C428.87911676 369.11445867 378.22514209 352.10355437 329.09765625 350.81640625 C275.49140594 349.95443085 224.29274198 365.58221394 185.1171875 402.953125 C164.22078648 423.24513781 150.03574073 447.61500848 137.97045898 473.91967773 C137.01598511 475.96573355 136.01906985 477.98545382 135 480 C134.34 480 133.68 480 133 480 C132.89977539 478.91396484 132.79955078 477.82792969 132.69628906 476.70898438 C126.74615468 412.72157288 113.57767888 353.92045677 68 306 C67.41992188 305.36707031 66.83984375 304.73414063 66.2421875 304.08203125 C61.00591307 298.54315805 54.88304188 293.98447636 48.82763672 289.38769531 C47.66392695 288.5041091 46.50368793 287.6159193 45.34814453 286.72167969 C31.47483472 276.02244719 15.89810962 268.22641346 0 261 C0 174.87 0 88.74 0 0 Z M761 376 C759.77890705 376.65543481 758.55755308 377.31038356 757.3359375 377.96484375 C749.3526799 382.31149982 742.07431647 387.29898634 735 393 C734.44844238 393.44327637 733.89688477 393.88655273 733.32861328 394.34326172 C678.72153015 438.59887521 656.44393966 508.65805335 649.31640625 576.30078125 C641.84183342 654.50571496 655.26610087 742.57057143 706 805 C709.81999847 809.51360564 713.86694677 813.77393854 718 818 C718.78246094 818.84433594 719.56492187 819.68867187 720.37109375 820.55859375 C731.73573471 832.5365037 745.55104926 842.11430146 760 850 C760.94045166 850.51554443 760.94045166 850.51554443 761.89990234 851.04150391 C772.52834733 856.78857731 783.53947737 861.20130085 795 865 C795.71849121 865.23847656 796.43698242 865.47695313 797.17724609 865.72265625 C848.46881226 882.29505243 910.59787173 878.96260875 958.84350586 854.68847656 C1009.9684511 827.99446009 1039.48986075 779.73720419 1056.484375 726.26953125 C1068.18385942 688.89675721 1072.22059899 649.40397185 1072.25 610.375 C1072.25100708 609.43756958 1072.25201416 608.50013916 1072.25305176 607.53430176 C1072.24101739 590.84970698 1071.32607378 574.54069063 1069 558 C1068.86078125 556.99211426 1068.7215625 555.98422852 1068.578125 554.94580078 C1062.70359478 513.98047143 1048.72135244 470.69358073 1024 437 C1023.61489258 436.4750293 1023.22978516 435.95005859 1022.83300781 435.40917969 C1017.90286495 428.73530668 1012.70813659 422.36808512 1007.078125 416.265625 C1005.18181669 414.1982212 1003.36970394 412.08249907 1001.5625 409.9375 C972.22398575 376.52233571 926.13792833 359.0185956 883 354 C881.90300781 353.86851562 880.80601562 353.73703125 879.67578125 353.6015625 C839.51789589 349.71700888 796.45148443 356.32510159 761 376 Z " fill="#92D2F4" transform="translate(891,0)"/>
<path d="M0 0 C1.26930359 0.00182281 2.53860718 0.00364563 3.84637451 0.00552368 C75.94916941 0.17920401 156.63312742 9.91168903 212.9375 59.3125 C214.24460937 60.45525391 214.24460937 60.45525391 215.578125 61.62109375 C218.05893014 63.82336538 220.50532315 66.05675049 222.9375 68.3125 C223.52917969 68.85003906 224.12085938 69.38757813 224.73046875 69.94140625 C264.78946487 107.90705815 278.82360688 166.37631694 281.9375 219.3125 C243.6575 219.3125 205.3775 219.3125 165.9375 219.3125 C163.9575 208.4225 163.9575 208.4225 161.9375 197.3125 C152.63517151 165.89130156 134.67714508 141.13393748 105.75634766 125.10351562 C53.09360597 97.28342506 -16.4251963 96.66461034 -72.60327148 113.53833008 C-96.70071775 121.10304251 -119.24034534 133.46333482 -131.7109375 156.3359375 C-140.15280019 173.34320233 -141.90743802 192.71488687 -136.3203125 210.8828125 C-132.74614902 220.62851292 -127.96417103 228.56948241 -121.0625 236.3125 C-120.45792969 236.99957031 -119.85335937 237.68664062 -119.23046875 238.39453125 C-80.53027418 279.70189683 -7.02622553 288.53878657 45.37127686 299.99763489 C169.89399367 327.23407607 169.89399367 327.23407607 216.9375 352.3125 C217.66420898 352.69519043 218.39091797 353.07788086 219.13964844 353.47216797 C229.65893679 359.03684908 239.48163476 365.08568488 248.9375 372.3125 C249.83210937 372.9828125 250.72671875 373.653125 251.6484375 374.34375 C265.66243276 385.28560816 278.32213333 398.33826312 287.9375 413.3125 C288.53183838 414.23699951 288.53183838 414.23699951 289.13818359 415.18017578 C315.73033751 457.47144402 317.77805157 512.32793115 307.48046875 559.9765625 C303.66528547 576.29860569 297.98097687 591.62808529 289.9375 606.3125 C289.44765625 607.27800781 288.9578125 608.24351562 288.453125 609.23828125 C261.86642871 660.84335748 207.76753133 690.76127098 154.65568542 708.00605774 C131.28965617 715.47878509 107.22610737 720.06037945 82.9375 723.3125 C81.74092773 723.47766113 80.54435547 723.64282227 79.31152344 723.81298828 C59.09401878 726.46423957 38.80210154 726.62368669 18.44283295 726.68041611 C16.35836029 726.6873475 14.2739595 726.69899563 12.18951416 726.71157837 C-44.437457 727.00623168 -102.87968098 718.62349919 -154.0625 693.3125 C-155.27607178 692.71501953 -155.27607178 692.71501953 -156.51416016 692.10546875 C-167.56996773 686.60702094 -178.03861464 680.52674592 -188.0625 673.3125 C-188.90071289 672.70970215 -188.90071289 672.70970215 -189.75585938 672.09472656 C-197.87068916 666.19173491 -205.3279876 659.67932491 -212.57080078 652.74121094 C-213.94415496 651.42584782 -215.3289824 650.1224915 -216.71484375 648.8203125 C-223.57626282 642.2082025 -229.43050004 634.97514086 -235.0625 627.3125 C-235.47999512 626.74466797 -235.89749023 626.17683594 -236.32763672 625.59179688 C-264.57490544 586.55431801 -277.0625 537.96332742 -277.0625 490.3125 C-239.1125 490.3125 -201.1625 490.3125 -162.0625 490.3125 C-161.08518018 493.24445947 -160.78518692 495.896186 -160.51879883 498.95947266 C-158.9829232 516.01223611 -154.7915434 532.01954648 -147.0625 547.3125 C-146.60834717 548.22056396 -146.60834717 548.22056396 -146.14501953 549.14697266 C-141.30543601 558.644239 -135.21196882 566.46869734 -128.0625 574.3125 C-127.49144531 574.96605469 -126.92039062 575.61960937 -126.33203125 576.29296875 C-94.2718787 610.99046033 -38.7920944 621.05541646 5.9375 623.3125 C56.69722353 625.25856404 121.80730917 623.1162338 161.4375 586.75 C163.30569356 584.96774944 165.12207845 583.14992666 166.9375 581.3125 C167.60265625 580.65765625 168.2678125 580.0028125 168.953125 579.328125 C184.51145301 562.92880628 189.71187758 539.82884852 189.1796875 517.86328125 C188.41494365 499.98266154 182.34310585 484.14953345 170.9375 470.3125 C170.33421875 469.54679687 169.7309375 468.78109375 169.109375 467.9921875 C159.59258022 456.51605262 146.9817504 449.11029329 133.9375 442.3125 C133.28233398 441.95865234 132.62716797 441.60480469 131.95214844 441.24023438 C88.83868544 418.10824393 36.91603272 410.54082521 -10.375 400.25 C-160.59982668 367.5601359 -160.59982668 367.5601359 -217.0625 317.3125 C-218.07957031 316.40757812 -218.07957031 316.40757812 -219.1171875 315.484375 C-248.3318471 287.80732906 -261.69612483 246.70443869 -263.171875 207.39941406 C-264.04355401 173.7417081 -258.46463726 141.03566417 -242.0625 111.3125 C-241.19818359 109.71341797 -241.19818359 109.71341797 -240.31640625 108.08203125 C-233.96469618 96.74283521 -226.0137581 86.70202444 -217.0625 77.3125 C-216.51819336 76.74096191 -215.97388672 76.16942383 -215.41308594 75.58056641 C-207.17146117 66.98265607 -198.78139773 59.19963257 -189.0625 52.3125 C-188.00804687 51.54035156 -186.95359375 50.76820313 -185.8671875 49.97265625 C-168.04275254 37.26610268 -147.60607899 27.70583868 -127.0625 20.3125 C-126.2684375 20.01827148 -125.474375 19.72404297 -124.65625 19.42089844 C-104.60828266 12.03945533 -83.64633897 7.30000946 -62.5625 4 C-61.62317627 3.85280518 -60.68385254 3.70561035 -59.71606445 3.55395508 C-56.50261513 3.08716503 -53.28799663 2.68795805 -50.0625 2.3125 C-49.32339386 2.22636444 -48.58428772 2.14022888 -47.82278442 2.05148315 C-31.88041517 0.25296383 -16.03206149 -0.04788706 0 0 Z " fill="#80CDF4" transform="translate(725.0625,247.6875)"/>
<path d="M0 0 C38.28 0 76.56 0 116 0 C116 118.14 116 236.28 116 358 C115.34 358 114.68 358 114 358 C114 240.19 114 122.38 114 1 C77.04 1 40.08 1 2 1 C2 103.3 2 205.6 2 311 C-2.29425875 309.92643531 -2.74740471 309.4915227 -5 306 C-3.68 306.66 -2.36 307.32 -1 308 C-0.67 206.36 -0.34 104.72 0 0 Z " fill="#6B7782" transform="translate(1427,3)"/>
<path d="M0 0 C38.28 0 76.56 0 116 0 C116 118.14 116 236.28 116 358 C115.67 358 115.34 358 115 358 C115 240.19 115 122.38 115 1 C77.71 1 40.42 1 2 1 C2.33 86.14 2.66 171.28 3 259 C12.405 263.95 12.405 263.95 22 269 C40.84951042 279.57742311 56.7482765 291.72375605 72 307 C72.69480469 307.66 73.38960937 308.32 74.10546875 309 C114.76599284 348.05851469 130.96626914 409.44099897 134 464 C134.07639561 468.00246546 134.07406754 471.99760968 134 476 C134.66 476 135.32 476 136 476 C135.67 477.32 135.34 478.64 135 480 C134.34 480 133.68 480 133 480 C132.89977539 478.91396484 132.79955078 477.82792969 132.69628906 476.70898438 C126.74615468 412.72157288 113.57767888 353.92045677 68 306 C67.41992188 305.36707031 66.83984375 304.73414063 66.2421875 304.08203125 C61.00591307 298.54315805 54.88304188 293.98447636 48.82763672 289.38769531 C47.66392695 288.5041091 46.50368793 287.6159193 45.34814453 286.72167969 C31.47483472 276.02244719 15.89810962 268.22641346 0 261 C0 174.87 0 88.74 0 0 Z " fill="#6D7883" transform="translate(891,0)"/>
<path d="M0 0 C2.03788711 3.05683067 2.37498604 4.36804147 2.81640625 7.90234375 C2.94080078 8.87623047 3.06519531 9.85011719 3.19335938 10.85351562 C3.37608398 12.38008789 3.37608398 12.38008789 3.5625 13.9375 C3.68818359 14.92041016 3.81386719 15.90332031 3.94335938 16.91601562 C5.34269984 28.11806576 6.15967104 39.2333992 6.23828125 50.5234375 C6.24793915 51.6919223 6.25759705 52.8604071 6.26754761 54.06430054 C6.29228365 57.83456633 6.3049354 61.60466188 6.3125 65.375 C6.31545074 66.66168579 6.31840149 67.94837158 6.32144165 69.27404785 C6.32989911 85.51387597 5.99703257 101.60285306 4.1875 117.75 C4.10472809 118.49739441 4.02195618 119.24478882 3.93667603 120.01483154 C2.96902939 128.47846051 1.53664834 136.76697563 -0.36572266 145.06933594 C-0.90449789 147.55873468 -1.29316405 149.97073918 -1.5625 152.5 C-2 156 -2 156 -2.921875 158.75 C-3.87867593 161.63426946 -4.59758399 164.48809466 -5.2421875 167.45507812 C-6.94233112 175.26231661 -9.08800003 182.88356454 -11.5 190.5 C-11.78447998 191.40685547 -12.06895996 192.31371094 -12.36206055 193.24804688 C-13.97705997 198.25919358 -15.82524253 203.05043476 -18.02246094 207.83398438 C-18.98307136 209.9624898 -19.85904974 212.10719257 -20.7109375 214.28125 C-23.44558582 221.23856471 -26.06967887 227.79093949 -30.5 233.87109375 C-32.1998557 236.28364937 -33.57738549 238.78939813 -35 241.375 C-38.35045542 247.20253369 -42.2035608 252.58926898 -46.1875 258 C-46.79400391 258.8254834 -47.40050781 259.6509668 -48.02539062 260.50146484 C-50.83405905 264.27299446 -53.65995662 267.68387101 -57 271 C-57.33 271.99 -57.66 272.98 -58 274 C-59.4609375 275.47265625 -59.4609375 275.47265625 -61.375 277.0625 C-64.72268395 279.88785029 -67.9345268 282.8108122 -71.125 285.8125 C-75.91836992 290.20306573 -80.9660315 294.00380092 -86.31689453 297.6887207 C-88.61443869 299.27331289 -90.77769082 300.7691016 -92.71875 302.78515625 C-94 304 -94 304 -97 304 C-97 304.66 -97 305.32 -97 306 C-97.928125 306.37125 -98.85625 306.7425 -99.8125 307.125 C-102.99834292 308.47676204 -105.93926293 310.08692852 -108.9375 311.8125 C-115.99028299 315.71136357 -123.40651917 318.36819071 -131 321 C-132.01320313 321.35964844 -133.02640625 321.71929688 -134.0703125 322.08984375 C-141.28264716 324.48433886 -148.63655524 326.1024865 -156.0625 327.6875 C-157.55233398 328.00956421 -157.55233398 328.00956421 -159.07226562 328.33813477 C-172.23092036 331.05205309 -185.27812112 331.18643214 -198.66040039 331.18530273 C-201.53221748 331.18747707 -204.40364173 331.20565637 -207.27539062 331.22460938 C-238.36318165 331.31840918 -238.36318165 331.31840918 -245 328 C-247.78307848 327.50860573 -250.5748921 327.10487599 -253.37109375 326.6953125 C-280.65185192 321.46821352 -307.0384884 309.94252978 -329 293 C-329.9590625 292.26394531 -330.918125 291.52789063 -331.90625 290.76953125 C-336.21645364 287.39109222 -340.15893471 283.90904875 -344 280 C-345.10966951 278.88831626 -346.22040676 277.77769762 -347.33203125 276.66796875 C-350.5546875 273.4453125 -353.77734375 270.22265625 -357 267 C-356.67 266.34 -356.34 265.68 -356 265 C-355.36106812 265.67035278 -355.36106812 265.67035278 -354.70922852 266.35424805 C-340.34602977 281.3228584 -325.24718849 294.04136493 -307 304 C-306.05954834 304.51554443 -306.05954834 304.51554443 -305.10009766 305.04150391 C-294.47165267 310.78857731 -283.46052263 315.20130085 -272 319 C-270.92226318 319.35771484 -270.92226318 319.35771484 -269.82275391 319.72265625 C-218.53118774 336.29505243 -156.40212827 332.96260875 -108.15649414 308.68847656 C-57.40218517 282.18798149 -28.37330861 234.30671141 -11.515625 181.26953125 C0.18557341 143.89128207 4.20888007 104.40777289 4.25 65.375 C4.25200409 64.44089294 4.25400818 63.50678589 4.256073 62.54437256 C4.26422705 46.92087347 3.29746907 31.6958612 1.36376953 16.19238281 C0.75019487 10.80775044 0.37173587 5.40595926 0 0 Z " fill="#0F2B37" transform="translate(1958,545)"/>
<path d="M0 0 C11.31396274 4.67090205 18.67165063 19.34281529 23.3125 30.01953125 C24.32138386 32.67156051 25.22851329 35.26924258 26 38 C26.17587646 38.61012939 26.35175293 39.22025879 26.53295898 39.84887695 C32.82267683 64.22188319 27.50282833 90.24769493 14.98046875 111.4921875 C11.02402365 117.75070618 6.78630458 122.43599619 1 127 C-0.42248416 128.24337575 -1.83921958 129.49336041 -3.25 130.75 C-10.31775701 137 -10.31775701 137 -13 137 C-13 137.66 -13 138.32 -13 139 C-14.65 139.33 -16.3 139.66 -18 140 C-18 140.66 -18 141.32 -18 142 C-27.00412238 146.54916796 -35.97430722 150.16705219 -45.65161133 153.04541016 C-46.42013428 153.27405762 -47.18865723 153.50270508 -47.98046875 153.73828125 C-48.66004639 153.93462158 -49.33962402 154.13096191 -50.03979492 154.33325195 C-52.13864042 155.04715743 -54.02150809 156.00587332 -56 157 C-58.10546875 157.37890625 -58.10546875 157.37890625 -60.1875 157.5625 C-63.78190939 157.57461534 -63.78190939 157.57461534 -65 159 C-67.93584017 159.52372276 -70.86380087 159.99823619 -73.8125 160.4375 C-75.44410332 160.68558771 -77.07561247 160.93429539 -78.70703125 161.18359375 C-79.56184082 161.3125 -80.41665039 161.44140625 -81.29736328 161.57421875 C-83.14768515 161.86572384 -84.9950316 162.1765903 -86.83935547 162.50390625 C-123.71433306 169.03886673 -163.22271211 167.44808655 -200 161 C-200.96421875 160.83628906 -201.9284375 160.67257812 -202.921875 160.50390625 C-219.4752616 157.44748029 -237.52130862 152.76341847 -252 144 C-253.19625 143.5875 -254.3925 143.175 -255.625 142.75 C-261.19633886 140.75413723 -266.30581989 137.58103814 -271 134 C-271 133.34 -271 132.68 -271 132 C-271.88365234 131.82210937 -271.88365234 131.82210937 -272.78515625 131.640625 C-278.52690125 129.97987336 -282.98254094 125.20876664 -287 121 C-288.60145464 119.39312588 -290.20582878 117.7891582 -291.8125 116.1875 C-293.20833333 114.79166667 -294.60416667 113.39583333 -296 112 C-295.505 111.01 -295.505 111.01 -295 110 C-294.06994141 110.99966797 -294.06994141 110.99966797 -293.12109375 112.01953125 C-256.56794033 150.0624784 -201.02222257 162.01755618 -150.04425049 163.21192932 C-100.49300795 164.08725018 -38.05776187 161.31348555 -0.00341797 125.00976562 C1.34383058 123.68605585 2.67253844 122.34355201 4 121 C4.66515625 120.34515625 5.3303125 119.6903125 6.015625 119.015625 C21.57395301 102.61630628 26.77437758 79.51634852 26.2421875 57.55078125 C25.30694286 35.68365027 16.19975174 18.60050092 1.46875 2.6796875 C0 1 0 1 0 0 Z " fill="#07455F" transform="translate(888,708)"/>
<path d="M0 0 C0.33 0 0.66 0 1 0 C1 85.8 1 171.6 1 260 C2.65 260.33 4.3 260.66 6 261 C9.12957725 262.25219438 12.11552277 263.79633006 15.125 265.3125 C16.0008374 265.75327881 16.8766748 266.19405762 17.77905273 266.64819336 C31.45345248 273.66733467 44.50860772 281.74841977 56 292 C57.33998047 293.19496094 57.33998047 293.19496094 58.70703125 294.4140625 C60.38240848 295.92018493 62.05139868 297.43347471 63.7109375 298.95703125 C65.29493909 300.37073916 66.92709411 301.73162246 68.59375 303.046875 C71.40550028 305.32913984 73.59277538 307.81081127 75.9296875 310.5625 C77.43281532 312.3322203 78.96252681 314.07946933 80.5078125 315.8125 C98.71224017 336.39872303 110.89404769 361.24427235 120 387 C120.25475098 387.72010254 120.50950195 388.44020508 120.77197266 389.18212891 C130.10914142 416.35508689 134.53093699 447.30973835 134 476 C134.66 476 135.32 476 136 476 C135.67 477.32 135.34 478.64 135 480 C134.34 480 133.68 480 133 480 C132.89977539 478.91396484 132.79955078 477.82792969 132.69628906 476.70898438 C126.74615468 412.72157288 113.57767888 353.92045677 68 306 C67.41992188 305.36707031 66.83984375 304.73414063 66.2421875 304.08203125 C61.00591307 298.54315805 54.88304188 293.98447636 48.82763672 289.38769531 C47.66392695 288.5041091 46.50368793 287.6159193 45.34814453 286.72167969 C31.47483472 276.02244719 15.89810962 268.22641346 0 261 C0 174.87 0 88.74 0 0 Z " fill="#141A1C" transform="translate(891,0)"/>
<path d="M0 0 C0.33 0 0.66 0 1 0 C0.2870521 9.34800516 -0.74305637 18.63449503 -1.89453125 27.9375 C-3.60485274 42.24200698 -4.20908233 56.48338468 -4.1875 70.875 C-4.18689575 71.63112579 -4.1862915 72.38725159 -4.18566895 73.16629028 C-4.06378669 129.90916911 6.83069461 188.11972834 36.19116211 237.29003906 C36.68624268 238.12374023 37.18132324 238.95744141 37.69140625 239.81640625 C38.13685791 240.55318604 38.58230957 241.28996582 39.04125977 242.04907227 C40 244 40 244 40 247 C33.15844765 237.20414096 27.12976587 226.79212388 22 216 C21.5666333 215.10941895 21.1332666 214.21883789 20.68676758 213.30126953 C17.04074196 205.64828522 14.06453219 197.9202196 11.43969727 189.86108398 C10.81077817 187.93221922 10.16900379 186.0079899 9.52539062 184.08398438 C5.78907481 172.82171622 2.96299714 161.56120163 0.9375 149.875 C0.61417079 148.03890563 0.28995688 146.20296683 -0.03515625 144.3671875 C-0.19338867 143.46911377 -0.35162109 142.57104004 -0.51464844 141.64575195 C-0.97795145 139.12019121 -1.49230848 136.61053302 -2.01953125 134.09765625 C-9.95012684 94.56454589 -12.90113235 38.70339706 0 0 Z " fill="#203641" transform="translate(1544,542)"/>
<path d="M0 0 C-0.51159668 0.21503174 -1.02319336 0.43006348 -1.55029297 0.65161133 C-30.29548393 12.85342941 -55.75995371 30.11219061 -75 55 C-75.62777344 55.73863281 -76.25554687 56.47726562 -76.90234375 57.23828125 C-103.62658676 88.88109659 -117.30695435 130.22840573 -126 170 C-126.33 170 -126.66 170 -127 170 C-127.33199318 163.28109038 -126.1461636 157.58923149 -124.375 151.125 C-124.10502197 150.11848389 -123.83504395 149.11196777 -123.55688477 148.07495117 C-112.49522744 107.52623167 -93.7221748 70.86485925 -65 40 C-64.38769531 39.33355469 -63.77539062 38.66710937 -63.14453125 37.98046875 C-57.03978345 31.58935752 -50.03999408 26.30710454 -43 21 C-42.154375 20.35933594 -41.30875 19.71867187 -40.4375 19.05859375 C-10.06499901 -3.05381829 -10.06499901 -3.05381829 0 0 Z " fill="#232C33" transform="translate(1673,367)"/>
<path d="M0 0 C2.03788711 3.05683067 2.37498604 4.36804147 2.81640625 7.90234375 C2.94080078 8.87623047 3.06519531 9.85011719 3.19335938 10.85351562 C3.31517578 11.87123047 3.43699219 12.88894531 3.5625 13.9375 C3.68818359 14.92041016 3.81386719 15.90332031 3.94335938 16.91601562 C5.34269984 28.11806576 6.15967104 39.2333992 6.23828125 50.5234375 C6.2527681 52.2761647 6.2527681 52.2761647 6.26754761 54.06430054 C6.29228365 57.83456633 6.3049354 61.60466188 6.3125 65.375 C6.31692612 67.30502869 6.31692612 67.30502869 6.32144165 69.27404785 C6.32989911 85.51387597 5.99703257 101.60285306 4.1875 117.75 C4.10472809 118.49739441 4.02195618 119.24478882 3.93667603 120.01483154 C2.96902939 128.47846051 1.53664834 136.76697563 -0.36572266 145.06933594 C-0.90449789 147.55873468 -1.29316405 149.97073918 -1.5625 152.5 C-2 156 -2 156 -2.921875 158.75 C-3.87867593 161.63426946 -4.59758399 164.48809466 -5.2421875 167.45507812 C-6.94233112 175.26231661 -9.08800003 182.88356454 -11.5 190.5 C-11.92671997 191.8602832 -11.92671997 191.8602832 -12.36206055 193.24804688 C-13.97634432 198.256973 -15.82227226 203.04789656 -18.01806641 207.82958984 C-18.98734899 209.97203692 -19.8780573 212.13117784 -20.74609375 214.31640625 C-23.65250135 221.62247583 -26.45432744 228.5258603 -31 235 C-32 232 -32 232 -31.33837891 230.12841797 C-30.97147949 229.42346191 -30.60458008 228.71850586 -30.2265625 227.9921875 C-29.81833252 227.18362305 -29.41010254 226.37505859 -28.98950195 225.54199219 C-28.53921631 224.66188477 -28.08893066 223.78177734 -27.625 222.875 C-11.42860236 189.97293801 -3.17560958 154.09624619 1.25 117.875 C1.33317474 117.19783936 1.41634949 116.52067871 1.50204468 115.82299805 C3.54063578 98.99366884 4.23216167 82.30789512 4.25 65.375 C4.25200409 64.44089294 4.25400818 63.50678589 4.256073 62.54437256 C4.26422705 46.92087347 3.29746907 31.6958612 1.36376953 16.19238281 C0.75019487 10.80775044 0.37173587 5.40595926 0 0 Z " fill="#1E333D" transform="translate(1958,545)"/>
<path d="M0 0 C5.78712604 0.5125474 10.16170883 2.85653472 15.1875 5.5625 C16.03175537 6.01359131 16.87601074 6.46468262 17.74584961 6.92944336 C28.32846897 12.68451091 37.25166106 19.7477009 46 28 C46.62648438 28.57363281 47.25296875 29.14726562 47.8984375 29.73828125 C64.97830117 45.92937374 74.95336426 69.96446146 78 93 C78 95.97 78 98.94 78 102 C115.62 102 153.24 102 192 102 C192 100.35 192 98.7 192 97 C192.33 97 192.66 97 193 97 C193 98.98 193 100.96 193 103 C154.72 103 116.44 103 77 103 C75.68 95.74 74.36 88.48 73 81 C63.98375169 50.54511682 46.86096162 25.99821497 19 10 C12.78059646 6.75795775 6.4046322 3.85416333 0 1 C0 0.67 0 0.34 0 0 Z " fill="#171D1F" transform="translate(814,364)"/>
<path d="M0 0 C11.31396274 4.67090205 18.67165063 19.34281529 23.3125 30.01953125 C24.32138386 32.67156051 25.22851329 35.26924258 26 38 C26.17587646 38.61012939 26.35175293 39.22025879 26.53295898 39.84887695 C32.82267683 64.22188319 27.50282833 90.24769493 14.98046875 111.4921875 C11.02402365 117.75070618 6.78630458 122.43599619 1 127 C-0.42248416 128.24337575 -1.83921958 129.49336041 -3.25 130.75 C-10.31775701 137 -10.31775701 137 -13 137 C-13 137.66 -13 138.32 -13 139 C-14.65 139.33 -16.3 139.66 -18 140 C-18 140.66 -18 141.32 -18 142 C-26.18245835 146.13403725 -34.37784041 149.66167365 -43.125 152.4375 C-43.92977783 152.69611816 -44.73455566 152.95473633 -45.5637207 153.22119141 C-49.47161747 154.42165912 -52.86199983 155.34067873 -57 155 C-53.47528615 152.65019076 -49.87545055 151.61941656 -45.875 150.375 C-27.36367066 144.38174656 -10.98714238 135.75007217 3 122 C3.69867187 121.31421875 4.39734375 120.6284375 5.1171875 119.921875 C21.15145113 103.07653967 26.79327334 80.29625038 26.2421875 57.55078125 C25.30694286 35.68365027 16.19975174 18.60050092 1.46875 2.6796875 C0 1 0 1 0 0 Z " fill="#062635" transform="translate(888,708)"/>
<path d="M0 0 C-4.36820676 2.91213784 -9.0527567 3.67299594 -14.125 4.875 C-15.23649414 5.13893555 -16.34798828 5.40287109 -17.49316406 5.67480469 C-25.20675749 7.4582066 -32.93520276 8.98363891 -40.75 10.25 C-42.12696045 10.47598877 -42.12696045 10.47598877 -43.53173828 10.70654297 C-61.90466703 13.5270461 -80.1824696 14.37662896 -98.75 14.3125 C-100.39959717 14.30976578 -100.39959717 14.30976578 -102.08251953 14.30697632 C-117.92874912 14.26277665 -133.37499108 13.85254386 -149 11 C-150.13904785 10.80180664 -151.2780957 10.60361328 -152.45166016 10.39941406 C-158.24550624 9.38419687 -164.03088974 8.3275461 -169.80078125 7.18359375 C-170.70997314 7.00368896 -171.61916504 6.82378418 -172.5559082 6.63842773 C-174.92612855 6.01929616 -176.86214977 5.18187814 -179 4 C-171.09547624 3.66816316 -163.80813583 4.93151939 -156.0625 6.4375 C-154.21688477 6.78264648 -154.21688477 6.78264648 -152.33398438 7.13476562 C-143.2997449 8.85012755 -143.2997449 8.85012755 -141 10 C-135.9740949 10.52574579 -130.91958286 10.77042201 -125.875 11.0625 C-124.74485977 11.12878601 -124.74485977 11.12878601 -123.59188843 11.19641113 C-112.33248988 11.84265052 -101.09027041 12.21436158 -89.8125 12.25 C-87.91250244 12.26365601 -87.91250244 12.26365601 -85.97412109 12.27758789 C-78.39868864 12.25312524 -71.11938305 11.59812053 -63.62744141 10.49169922 C-60.22429329 10.03040293 -56.86822582 9.75889373 -53.44140625 9.5546875 C-46.4504344 9.06533016 -39.76395324 7.6636728 -32.9375 6.125 C-31.76123047 5.86847656 -30.58496094 5.61195313 -29.37304688 5.34765625 C-22.72810245 3.88569501 -16.12819922 2.30309955 -9.55004883 0.56469727 C-6.25039271 -0.16599729 -3.36091284 -0.22915315 0 0 Z " fill="#1A739A" transform="translate(1869,963)"/>
<path d="M0 0 C0.99 0.495 0.99 0.495 2 1 C-3.51765118 8.4573033 -9.64779858 15.25888829 -16 22 C-16.65742187 22.7115625 -17.31484375 23.423125 -17.9921875 24.15625 C-43.94414231 51.33340439 -80.44296041 67.54799059 -115.34375 79.53125 C-116.58415039 79.95760742 -116.58415039 79.95760742 -117.84960938 80.39257812 C-120 81 -120 81 -123 81 C-123 80.34 -123 79.68 -123 79 C-121.95996826 78.65388672 -121.95996826 78.65388672 -120.89892578 78.30078125 C-106.61108246 73.52005801 -92.54004056 68.63732956 -79 62 C-78.09652832 61.55785156 -77.19305664 61.11570312 -76.26220703 60.66015625 C-56.98057564 51.12432514 -40.43340483 39.80483317 -24 26 C-23.16339844 25.30777344 -22.32679688 24.61554687 -21.46484375 23.90234375 C-13.23628917 16.94215981 -6.76164853 8.34089978 0 0 Z " fill="#00648F" transform="translate(999,875)"/>
<path d="M0 0 C25.94465117 11.51186509 45.6735032 57.13278075 55.3996582 81.89941406 C71.1955607 123.56104043 71.1955607 123.56104043 70 140 C69.67 140 69.34 140 69 140 C68.84966309 139.31711914 68.69932617 138.63423828 68.54443359 137.93066406 C57.8734596 89.77819636 40.81959696 45.68989486 7 9 C5.63997654 7.4844019 4.28532698 5.96395466 2.9375 4.4375 C2.36902344 3.79683594 1.80054688 3.15617187 1.21484375 2.49609375 C0 1 0 1 0 0 Z " fill="#29373E" transform="translate(1888,405)"/>
<path d="M0 0 C0.99 0.495 0.99 0.495 2 1 C1 3 1 3 -0.25390625 4.61328125 C-2.20574804 7.28123501 -3.87219307 10.05145342 -5.56494141 12.88842773 C-16.21070263 30.72036183 -28.30919972 47.02122767 -42.453125 62.23046875 C-44.49064824 64.44611902 -46.44482414 66.69238877 -48.375 69 C-59.77434804 82.07811189 -74.01654727 92.53399182 -88.0625 102.5625 C-89.13419434 103.33207031 -89.13419434 103.33207031 -90.22753906 104.1171875 C-93.70930811 106.56946338 -96.91455174 108.65411159 -101 110 C-99.60724746 106.6227555 -98.17726069 105.12929695 -95.0625 103.25 C-94.37285156 102.82203125 -93.68320313 102.3940625 -92.97265625 101.953125 C-91 101 -91 101 -88 101 C-88 100.34 -88 99.68 -88 99 C-86.515 98.505 -86.515 98.505 -85 98 C-84.67 97.34 -84.34 96.68 -84 96 C-82.515 95.505 -82.515 95.505 -81 95 C-80.67 94.34 -80.34 93.68 -80 93 C-79.0409375 92.5359375 -79.0409375 92.5359375 -78.0625 92.0625 C-75.68028507 91.04654078 -75.68028507 91.04654078 -74 88 C-72.67479497 87.31731862 -71.34187818 86.6492959 -70 86 C-69.67 85.34 -69.34 84.68 -69 84 C-68.30648438 83.60167969 -67.61296875 83.20335937 -66.8984375 82.79296875 C-63.03145633 80.40086045 -59.91863129 77.42997273 -56.625 74.3125 C-55.95235107 73.67892578 -55.27970215 73.04535156 -54.58666992 72.39257812 C-50.10271222 68.13306404 -45.94074516 63.76675288 -42 59 C-41.09368678 57.96391763 -40.18455475 56.93029781 -39.2734375 55.8984375 C-25.05906966 39.72827878 -13.60418267 21.71873388 -2.4609375 3.34375 C-1 1 -1 1 0 0 Z " fill="#0C2734" transform="translate(1502,820)"/>
<path d="M0 0 C6.34669811 5.38089623 6.34669811 5.38089623 9.1640625 8.05078125 C36.06442347 33.37670637 72.25628987 44.41035101 108 50 C108 50.33 108 50.66 108 51 C100.34950139 51.23661336 93.42123716 50.8737308 86 49 C84.83339844 48.70867188 83.66679688 48.41734375 82.46484375 48.1171875 C69.29556781 44.71434305 55.70699187 41.08581087 44 34 C42.205625 33.38125 42.205625 33.38125 40.375 32.75 C34.80366114 30.75413723 29.69418011 27.58103814 25 24 C25 23.34 25 22.68 25 22 C24.41089844 21.88140625 23.82179688 21.7628125 23.21484375 21.640625 C17.47309875 19.97987336 13.01745906 15.20876664 9 11 C8.23816406 10.25878906 7.47632813 9.51757812 6.69140625 8.75390625 C5.86511719 7.94824219 5.03882813 7.14257812 4.1875 6.3125 C3.39730469 5.54550781 2.60710938 4.77851562 1.79296875 3.98828125 C0 2 0 2 0 0 Z " fill="#083346" transform="translate(592,818)"/>
<path d="M0 0 C1.32 0.66 2.64 1.32 4 2 C4 2.99 4 3.98 4 5 C3.34 5 2.68 5 2 5 C1.84966309 5.69335449 1.69932617 6.38670898 1.54443359 7.10107422 C-4.36237917 34.10811156 -12.08779493 63.92592786 -29.68017578 86.11962891 C-30.11571777 86.74015137 -30.55125977 87.36067383 -31 88 C-30.08160847 92.96766325 -26.25544231 96.29480075 -22.875 99.8125 C-22.31167969 100.40998047 -21.74835938 101.00746094 -21.16796875 101.62304688 C-19.7850002 103.08805594 -18.39335215 104.54486312 -17 106 C-17.495 106.99 -17.495 106.99 -18 108 C-22.22329266 103.97415998 -26.30234611 99.84018275 -30.0625 95.375 C-30.65160156 94.68148437 -31.24070312 93.98796875 -31.84765625 93.2734375 C-33.47828497 90.05640049 -33.01676732 88.43052168 -32 85 C-30.75179989 82.72253238 -29.47805636 80.60292511 -28.0625 78.4375 C-12.84195627 53.98714945 -5.51280102 28.04763784 0 0 Z " fill="#061319" transform="translate(1051,791)"/>
<path d="M0 0 C4.23236837 3.47994733 8.08441971 7.10409249 11.875 11.0625 C22.94074662 22.36689274 36.15380393 31.44326249 50 39 C50.94045166 39.51554443 50.94045166 39.51554443 51.89990234 40.04150391 C64.38692972 46.79356058 77.53988019 51.5706315 91 56 C91 56.33 91 56.66 91 57 C84.03076437 56.469642 78.07114042 54.48573016 71.5625 52 C70.50498535 51.59773193 69.4474707 51.19546387 68.35791016 50.78100586 C47.65922957 42.72524378 28.65356242 30.88444093 13 15 C11.89095987 13.91109069 10.7801858 12.82394544 9.66796875 11.73828125 C8.50775071 10.59641694 7.34759529 9.45448901 6.1875 8.3125 C5.59001953 7.73177734 4.99253906 7.15105469 4.37695312 6.55273438 C2.87985327 5.07274424 1.43511269 3.54017218 0 2 C0 1.34 0 0.68 0 0 Z " fill="#0F2834" transform="translate(1601,810)"/>
<path d="M0 0 C3.79289239 0.61137122 6.84832922 1.72685123 10.296875 3.40625 C11.84084961 4.14500366 11.84084961 4.14500366 13.41601562 4.89868164 C14.51623047 5.4271167 15.61644531 5.95555176 16.75 6.5 C32.69627548 14.01730477 49.07333935 20.08468685 66 25 C66 25.66 66 26.32 66 27 C67.485 27.495 67.485 27.495 69 28 C62.12589874 27.36516237 55.83373555 25.18728924 49.3125 23 C48.11657227 22.59918213 46.92064453 22.19836426 45.68847656 21.78540039 C29.71622574 16.31935545 14.73574839 9.19396918 0 1 C0 0.67 0 0.34 0 0 Z " fill="#1A698B" transform="translate(1081,935)"/>
<path d="M0 0 C11.31396274 4.67090205 18.67165063 19.34281529 23.3125 30.01953125 C24.32138386 32.67156051 25.22851329 35.26924258 26 38 C26.17587646 38.61012939 26.35175293 39.22025879 26.53295898 39.84887695 C28.30709614 46.72375705 28.34392234 53.49390108 28.3125 60.5625 C28.30839111 62.41572876 28.30839111 62.41572876 28.30419922 64.30639648 C28.05197923 86.42203116 28.05197923 86.42203116 23 94 C23.46224832 88.61115778 24.10845709 83.32504802 25.0625 78 C28.49491395 55.87133129 25.16145616 33.57637898 12.0625 15.0625 C8.73286695 10.75547956 5.16531407 6.6748202 1.46875 2.6796875 C0 1 0 1 0 0 Z " fill="#132C39" transform="translate(888,708)"/>
<path d="M0 0 C5.39992234 -0.31964276 8.60659215 0.44003223 13.375 2.9375 C21.51648178 7.03079645 30.00901837 9.99245002 38.60693359 12.97827148 C39.64930176 13.34251221 40.69166992 13.70675293 41.765625 14.08203125 C42.70180664 14.40405518 43.63798828 14.7260791 44.60253906 15.05786133 C47 16 47 16 50 18 C51.155 18.144375 52.31 18.28875 53.5 18.4375 C56.96506278 18.99438509 57.9762972 19.26204915 60 22 C52.24977732 21.44641267 45.20161035 19.03187891 37.875 16.5625 C37.22013611 16.34434631 36.56527222 16.12619263 35.89056396 15.90142822 C23.53462197 11.76823224 11.69518724 6.75324775 0 1 C0 0.67 0 0.34 0 0 Z " fill="#3B85A9" transform="translate(1630,945)"/>
<path d="M0 0 C0.66 0 1.32 0 2 0 C2 0.66 2 1.32 2 2 C2.5465625 2.19851563 3.093125 2.39703125 3.65625 2.6015625 C6.9703596 4.57898123 9.09358068 7.42182835 11.5 10.375 C19.32206033 19.72060276 27.4832602 28.58913227 37.453125 35.6953125 C37.96359375 36.12585938 38.4740625 36.55640625 39 37 C39 37.66 39 38.32 39 39 C39.556875 39.061875 40.11375 39.12375 40.6875 39.1875 C44.48333226 40.52117079 47.21170413 43.42340827 49 47 C38.53810089 42.22445076 29.7259045 33.32141663 21.51220703 25.44921875 C20.11897877 24.11402292 18.71429749 22.79080518 17.30859375 21.46875 C10.80629939 15.20049753 5.21637696 8.35842112 0 1 C0 0.67 0 0.34 0 0 Z " fill="#025A80" transform="translate(491,875)"/>
<path d="M0 0 C2.80299902 5.09070226 3.69275181 10.68288769 4.9375 16.3125 C5.20328857 17.51277832 5.46907715 18.71305664 5.74291992 19.94970703 C9.91505804 39.3531559 12.32208208 59.13827158 12 79 C12.66 79 13.32 79 14 79 C13.67 80.32 13.34 81.64 13 83 C12.34 83 11.68 83 11 83 C10.89977539 81.91396484 10.79955078 80.82792969 10.69628906 79.70898438 C7.65127854 44.17469792 7.65127854 44.17469792 0.52734375 9.29296875 C-0.20651409 6.10204613 -0.22200776 3.25611375 0 0 Z " fill="#1C2328" transform="translate(1013,397)"/>
<path d="M0 0 C-11.5682766 6.51334336 -23.34145298 12.19590619 -35.6875 17.0625 C-37.43981934 17.759198 -37.43981934 17.759198 -39.22753906 18.4699707 C-45.75457245 20.98795472 -52.07839213 22.93763196 -59 24 C-59 23.34 -59 22.68 -59 22 C-58.11199707 21.7071814 -58.11199707 21.7071814 -57.20605469 21.40844727 C-39.59847248 15.55791249 -22.59520242 8.84445715 -6.3125 -0.1015625 C-3.634647 -1.14194458 -2.6739364 -0.80147725 0 0 Z " fill="#1C7094" transform="translate(1928,939)"/>
<path d="M0 0 C7.90452376 -0.33183684 15.19186417 0.93151939 22.9375 2.4375 C24.78311523 2.78264648 24.78311523 2.78264648 26.66601562 3.13476562 C35.7002551 4.85012755 35.7002551 4.85012755 38 6 C40.54873282 6.2261782 43.07896898 6.40078865 45.6328125 6.53515625 C46.38464813 6.57813339 47.13648376 6.62111053 47.91110229 6.66539001 C50.3155236 6.80188248 52.72023271 6.93225976 55.125 7.0625 C56.75392886 7.15389472 58.3828355 7.2456866 60.01171875 7.33789062 C64.007569 7.5632053 68.003688 7.78303569 72 8 C72 8.33 72 8.66 72 9 C47.31925585 9.76420072 23.94881089 6.88545941 0 1 C0 0.67 0 0.34 0 0 Z " fill="#1F80AC" transform="translate(1690,967)"/>
<path d="M0 0 C0.99 0.495 0.99 0.495 2 1 C2.71435547 3.27807617 2.71435547 3.27807617 3.3671875 6.29296875 C3.61106201 7.3919751 3.85493652 8.49098145 4.10620117 9.62329102 C4.35990479 10.79947998 4.6136084 11.97566895 4.875 13.1875 C6.96528142 22.56354164 9.1317872 31.82688699 12 41 C12.26554687 41.85335937 12.53109375 42.70671875 12.8046875 43.5859375 C13.94379991 47.12070899 15.19934281 50.50004024 16.75 53.875 C18 57 18 57 17 60 C-0.49085084 18.27055892 -0.49085084 18.27055892 0 0 Z " fill="#1D5E7B" transform="translate(452,779)"/>
<path d="M0 0 C0.66 0.33 1.32 0.66 2 1 C-0.36559244 3.68045492 -2.70109206 4.96982558 -5.953125 6.41796875 C-7.45528564 7.08735474 -7.45528564 7.08735474 -8.98779297 7.77026367 C-10.06432129 8.23795166 -11.14084961 8.70563965 -12.25 9.1875 C-13.35359863 9.67001221 -14.45719727 10.15252441 -15.59423828 10.6496582 C-44.30065908 23 -44.30065908 23 -52 23 C-52 22.34 -52 21.68 -52 21 C-51.30664551 20.76925781 -50.61329102 20.53851562 -49.89892578 20.30078125 C-34.87869488 15.27500057 -19.86214543 10.23726072 -5.80566406 2.84619141 C-5.08862305 2.47026855 -4.37158203 2.0943457 -3.6328125 1.70703125 C-2.9845752 1.35745361 -2.33633789 1.00787598 -1.66845703 0.64770508 C-1.11786621 0.4339624 -0.56727539 0.22021973 0 0 Z " fill="#006E9D" transform="translate(928,933)"/>
<path d="M0 0 C3.82870441 0.57146739 6.44292475 1.65015781 9.6953125 3.73046875 C10.5716333 4.28387939 11.4479541 4.83729004 12.35083008 5.4074707 C13.26630615 5.99488037 14.18178223 6.58229004 15.125 7.1875 C22.29922112 11.71718866 29.44589594 16.12564686 37 20 C37 20.99 37 21.98 37 23 C31.84173802 21.51699968 27.57269862 19.22919722 23 16.5 C22.26467041 16.06437744 21.52934082 15.62875488 20.77172852 15.17993164 C13.57910741 10.85537691 6.6056852 6.1819559 0 1 C0 0.67 0 0.34 0 0 Z " fill="#4E84A1" transform="translate(1593,922)"/>
<path d="M0 0 C0.66 0.33 1.32 0.66 2 1 C1 3 1 3 -0.25390625 4.61328125 C-2.20593127 7.28148547 -3.8724812 10.05209189 -5.56567383 12.88916016 C-13.28383661 25.82007036 -21.9298224 37.99002597 -31 50 C-31.99 49.67 -32.98 49.34 -34 49 C-33.21625 48.13375 -32.4325 47.2675 -31.625 46.375 C-22.96053608 36.21247456 -15.89770666 24.85534717 -8.859375 13.54296875 C-6.00237389 8.96359843 -3.01856603 4.4740883 0 0 Z " fill="#112D3B" transform="translate(1502,820)"/>
<path d="M0 0 C11.75723292 5.21678547 20.07408713 19.54931414 27.3125 29.75 C27.81620117 30.45890381 28.31990234 31.16780762 28.83886719 31.89819336 C31.81284536 36.14212179 34.6845174 40.35760032 37 45 C36.67 45.99 36.34 46.98 36 48 C35.39414063 46.99582031 34.78828125 45.99164063 34.1640625 44.95703125 C26.19121869 31.88484589 17.39030492 20.27213892 7 9 C5.63997654 7.4844019 4.28532698 5.96395466 2.9375 4.4375 C2.36902344 3.79683594 1.80054688 3.15617187 1.21484375 2.49609375 C0 1 0 1 0 0 Z " fill="#21282D" transform="translate(1888,405)"/>
<path d="M0 0 C1.13651008 3.42175583 1.01599098 3.96034756 -0.44140625 7.57421875 C-1.13391426 8.95270484 -1.8418083 10.32353712 -2.5625 11.6875 C-2.93310547 12.40284912 -3.30371094 13.11819824 -3.68554688 13.85522461 C-8.39940042 22.82803263 -13.10098055 29.57743278 -21 36 C-22.44157277 37.2662115 -23.87916877 38.5369667 -25.3125 39.8125 C-27.49997956 41.75150318 -29.55412328 43.36941552 -32 45 C-32.99 44.67 -33.98 44.34 -35 44 C-34.32195313 43.53851562 -33.64390625 43.07703125 -32.9453125 42.6015625 C-17.01527805 31.43730013 -6.64357944 18.22811245 0 0 Z " fill="#04151D" transform="translate(910,799)"/>
<path d="M0 0 C-2.42368605 2.42368605 -4.09150298 2.75475715 -7.3828125 3.65625 C-8.46820312 3.95660156 -9.55359375 4.25695312 -10.671875 4.56640625 C-11.81140625 4.87449219 -12.9509375 5.18257812 -14.125 5.5 C-15.79949219 5.96212891 -15.79949219 5.96212891 -17.5078125 6.43359375 C-35.21549934 11.29903129 -35.21549934 11.29903129 -40 11 C-40 10.34 -40 9.68 -40 9 C-39.32533691 8.83395264 -38.65067383 8.66790527 -37.95556641 8.49682617 C-34.84473518 7.72962973 -31.73486903 6.9585871 -28.625 6.1875 C-27.03365234 5.79594727 -27.03365234 5.79594727 -25.41015625 5.39648438 C-19.57957496 3.94778166 -13.81965041 2.39659495 -8.09765625 0.5625 C-5.35851852 -0.17201738 -2.81679778 -0.22237877 0 0 Z " fill="#196687" transform="translate(1346,956)"/>
<path d="M0 0 C0.66 0.33 1.32 0.66 2 1 C-17.9698324 27.98994413 -17.9698324 27.98994413 -27 31 C-25.54350941 27.51675266 -23.69615118 25.65221544 -20.8125 23.25 C-16.43589556 19.45973491 -12.67910196 15.46022764 -9 11 C-8.19691406 10.02675781 -7.39382813 9.05351563 -6.56640625 8.05078125 C-4.36930088 5.37380887 -2.18085555 2.69021637 0 0 Z " fill="#035D84" transform="translate(999,875)"/>
<path d="M0 0 C5.87969686 0.49473177 10.29003599 2.98365166 15.375 5.75 C16.18710937 6.18054688 16.99921875 6.61109375 17.8359375 7.0546875 C23.02657017 9.83300691 28.05077198 12.81236161 33 16 C32.01 16.495 32.01 16.495 31 17 C28.78857422 16.18310547 28.78857422 16.18310547 26.0546875 14.8671875 C25.05953125 14.39023437 24.064375 13.91328125 23.0390625 13.421875 C21.99492188 12.91140625 20.95078125 12.4009375 19.875 11.875 C18.8540625 11.38773438 17.833125 10.90046875 16.78125 10.3984375 C10.94874219 7.57964195 5.37535105 4.62223895 0 1 C0 0.67 0 0.34 0 0 Z " fill="#006996" transform="translate(551,929)"/>
<path d="M0 0 C1.57370559 2.36055839 2.84260366 4.57434871 4.1015625 7.09765625 C8.68430063 16.13801591 13.09034849 24.49202671 20 32 C19.67 32.66 19.34 33.32 19 34 C13.96900465 30.27387376 11.2600712 26.63754676 8.375 21.125 C7.6329763 19.7525156 6.89079001 18.38011908 6.1484375 17.0078125 C5.79458984 16.33983643 5.44074219 15.67186035 5.07617188 14.98364258 C4.01378753 13.02541372 2.88496203 11.11915597 1.7421875 9.20703125 C-0.12394067 5.77184912 -0.37480754 3.84177733 0 0 Z " fill="#123647" transform="translate(572,784)"/>
<path d="M0 0 C0.66 0.33 1.32 0.66 2 1 C-1.48757434 6.04705881 -5.99088312 9.14448885 -10.9375 12.625 C-11.73607422 13.19734375 -12.53464844 13.7696875 -13.35742188 14.359375 C-21.84822907 20.40916306 -21.84822907 20.40916306 -25 22 C-25.66 21.67 -26.32 21.34 -27 21 C-23.90347804 17.72653393 -21.04980088 15.02490044 -17 13 C-16.01 13 -15.02 13 -14 13 C-14 12.34 -14 11.68 -14 11 C-13.01 10.67 -12.02 10.34 -11 10 C-10.67 9.34 -10.34 8.68 -10 8 C-9.01 7.67 -8.02 7.34 -7 7 C-6.67 6.34 -6.34 5.68 -6 5 C-5.360625 4.690625 -4.72125 4.38125 -4.0625 4.0625 C-1.68028507 3.04654078 -1.68028507 3.04654078 0 0 Z " fill="#14455B" transform="translate(1428,908)"/>
<path d="M0 0 C-23.69375355 13.48099771 -23.69375355 13.48099771 -31 16 C-31.99 15.67 -32.98 15.34 -34 15 C-33.34 15 -32.68 15 -32 15 C-32 14.34 -32 13.68 -32 13 C-26.08035502 9.81249886 -19.94038963 7.84011132 -13.5 6 C-12.675 5.67 -11.85 5.34 -11 5 C-10.67 4.01 -10.34 3.02 -10 2 C-8.22265625 1.015625 -8.22265625 1.015625 -6.0625 0.25 C-5.35222656 -0.01296875 -4.64195313 -0.2759375 -3.91015625 -0.546875 C-2 -1 -2 -1 0 0 Z " fill="#113F54" transform="translate(1396,934)"/>
<path d="M0 0 C5.72114005 0.9517136 10.49201101 3.38821002 15.6875 5.875 C16.64978516 6.32230469 17.61207031 6.76960937 18.60351562 7.23046875 C19.52197266 7.66746094 20.44042969 8.10445312 21.38671875 8.5546875 C22.22420654 8.95155762 23.06169434 9.34842773 23.92456055 9.75732422 C26 11 26 11 28 14 C21.19734284 12.00393688 15.15489119 9.19371895 8.9375 5.8125 C8.07189453 5.34908203 7.20628906 4.88566406 6.31445312 4.40820312 C4.20618308 3.27835675 2.10156302 2.1422583 0 1 C0 0.67 0 0.34 0 0 Z " fill="#195C7A" transform="translate(1081,935)"/>
<path d="M0 0 C1.32 0.33 2.64 0.66 4 1 C-1.28 6.28 -6.56 11.56 -12 17 C-12.33 15.68 -12.66 14.36 -13 13 C-11.98364258 11.33666992 -11.98364258 11.33666992 -10.39453125 9.73046875 C-9.82283203 9.15232422 -9.25113281 8.57417969 -8.66210938 7.97851562 C-8.05173828 7.38748047 -7.44136719 6.79644531 -6.8125 6.1875 C-6.22146484 5.57712891 -5.63042969 4.96675781 -5.02148438 4.33789062 C-4.15426758 3.4803418 -4.15426758 3.4803418 -3.26953125 2.60546875 C-2.73948486 2.08106201 -2.20943848 1.55665527 -1.66333008 1.01635742 C-0.83998169 0.5132605 -0.83998169 0.5132605 0 0 Z " fill="#788795" transform="translate(1582,309)"/>
<path d="M0 0 C6.3729652 0.54331731 11.78552588 2.10906164 17.75 4.375 C18.58660156 4.67921875 19.42320312 4.9834375 20.28515625 5.296875 C24.26324302 6.78151982 27.78894365 8.12416382 31 11 C24.07096458 10.4532325 18.00312392 7.93348067 11.5625 5.4375 C10.44939453 5.01275391 9.33628906 4.58800781 8.18945312 4.15039062 C5.45709149 3.10669884 2.72746098 2.05641767 0 1 C0 0.67 0 0.34 0 0 Z " fill="#005F87" transform="translate(584,946)"/>
<path d="M0 0 C0.66 0 1.32 0 2 0 C0.0545418 6.64971319 -2.64283619 12.4869667 -6.0625 18.5 C-6.73249023 19.71429687 -6.73249023 19.71429687 -7.41601562 20.953125 C-10.73556851 26.86778426 -10.73556851 26.86778426 -13 28 C-12.42032767 24.44329341 -11.49178049 21.66416715 -9.78515625 18.49609375 C-9.34623047 17.67302734 -8.90730469 16.84996094 -8.45507812 16.00195312 C-7.99552734 15.15568359 -7.53597656 14.30941406 -7.0625 13.4375 C-6.15734196 11.74881053 -5.25238675 10.06001232 -4.34765625 8.37109375 C-3.94554932 7.62786865 -3.54344238 6.88464355 -3.12915039 6.11889648 C-2.05084514 4.09541297 -1.01569366 2.05550823 0 0 Z " fill="#146F95" transform="translate(1020,838)"/>
<path d="M0 0 C1.32 0.66 2.64 1.32 4 2 C4 2.99 4 3.98 4 5 C3.34 5 2.68 5 2 5 C1.82871582 5.77714355 1.65743164 6.55428711 1.48095703 7.35498047 C0.70323625 10.86338868 -0.08572999 14.36917276 -0.875 17.875 C-1.14441406 19.09832031 -1.41382813 20.32164062 -1.69140625 21.58203125 C-1.95566406 22.74863281 -2.21992187 23.91523437 -2.4921875 25.1171875 C-2.85352783 26.73536377 -2.85352783 26.73536377 -3.22216797 28.38623047 C-4 31 -4 31 -6 33 C-5.33020896 25.67849106 -3.98329403 18.62089577 -2.4375 11.4375 C-2.20353516 10.33341797 -1.96957031 9.22933594 -1.72851562 8.09179688 C-1.15618938 5.39368745 -0.57993998 2.69648125 0 0 Z " fill="#09161D" transform="translate(1051,791)"/>
<path d="M0 0 C11.33033456 1.36057848 22.09912766 4.74321886 33 8 C33 8.33 33 8.66 33 9 C27.83780811 9.33666469 23.87439228 8.52433813 18.97265625 6.92578125 C16.67122882 6.20904235 14.39288368 5.57143529 12.05859375 4.98046875 C11.37796875 4.80741211 10.69734375 4.63435547 9.99609375 4.45605469 C8.63686405 4.11366808 7.27618979 3.77695992 5.9140625 3.44628906 C4.25958644 3.02410651 2.6268649 2.51849759 1 2 C0.67 1.34 0.34 0.68 0 0 Z " fill="#67727D" transform="translate(1839,258)"/>
<path d="M0 0 C-3.45150916 1.86708601 -6.91221165 3.71642907 -10.375 5.5625 C-11.85226562 6.36204102 -11.85226562 6.36204102 -13.359375 7.17773438 C-14.30039063 7.67724609 -15.24140625 8.17675781 -16.2109375 8.69140625 C-17.08024902 9.15748291 -17.94956055 9.62355957 -18.84521484 10.10375977 C-19.55629395 10.39951904 -20.26737305 10.69527832 -21 11 C-21.66 10.67 -22.32 10.34 -23 10 C-19.81713341 6.57088745 -16.20126299 4.82493937 -12.0625 2.75 C-11.34642578 2.37359375 -10.63035156 1.9971875 -9.89257812 1.609375 C-9.19712891 1.25875 -8.50167969 0.908125 -7.78515625 0.546875 C-7.15488525 0.22557617 -6.52461426 -0.09572266 -5.87524414 -0.42675781 C-3.57055266 -1.13127748 -2.25148209 -0.7618195 0 0 Z " fill="#1E7196" transform="translate(1928,939)"/>
<path d="M0 0 C-1.10812074 3.32436221 -1.85536627 3.92685332 -4.5 6.0625 C-9.73560669 10.49335701 -15.89850926 15.79701852 -19 22 C-19.99 21.67 -20.98 21.34 -22 21 C-19.79350472 18.62328678 -17.58446506 16.2489524 -15.375 13.875 C-14.75753906 13.20984375 -14.14007812 12.5446875 -13.50390625 11.859375 C-11.67745331 9.89834132 -9.84224438 7.94620174 -8 6 C-7.14390137 5.09362793 -7.14390137 5.09362793 -6.27050781 4.16894531 C-2.23881173 0 -2.23881173 0 0 0 Z " fill="#282F36" transform="translate(1618,399)"/>
<path d="M0 0 C4.44344983 3.71671738 6.65196511 8.5648739 9.25 13.625 C9.70890625 14.49640625 10.1678125 15.3678125 10.640625 16.265625 C14 22.72442336 14 22.72442336 14 25 C13.34 25 12.68 25 12 25 C11.46890625 23.91460937 10.9378125 22.82921875 10.390625 21.7109375 C9.6773009 20.26551761 8.96374699 18.82021111 8.25 17.375 C7.90195312 16.66214844 7.55390625 15.94929688 7.1953125 15.21484375 C5.54357557 11.88078216 3.87291956 8.71346863 1.734375 5.6640625 C0 3 0 3 0 0 Z " fill="#212528" transform="translate(870,404)"/>
<path d="M0 0 C8.28982104 -0.43630637 15.95969329 1.22032737 24 3 C24 3.33 24 3.66 24 4 C15.5657073 4.45636453 8.14043404 3.17423358 0 1 C0 0.67 0 0.34 0 0 Z " fill="#268FBE" transform="translate(1690,967)"/>
<path d="M0 0 C1.77155654 0.11429397 3.54226229 0.24183037 5.3125 0.375 C6.79169922 0.47941406 6.79169922 0.47941406 8.30078125 0.5859375 C11 1 11 1 14 3 C15.155 3.144375 16.31 3.28875 17.5 3.4375 C20.96506278 3.99438509 21.9762972 4.26204915 24 7 C18.20140805 6.43189471 13.02313406 5.26320265 7.5 3.4375 C6.77296875 3.20353516 6.0459375 2.96957031 5.296875 2.72851562 C3.52919739 2.15867219 1.76429031 1.58024596 0 1 C0 0.67 0 0.34 0 0 Z " fill="#2A5C75" transform="translate(1666,960)"/>
<path d="M0 0 C6.75479274 -0.7342166 11.18524285 1.72408048 17 5 C17 5.33 17 5.66 17 6 C10.37822074 5.69343615 5.77874846 4.25711277 0 1 C0 0.67 0 0.34 0 0 Z " fill="#4C91B4" transform="translate(1630,945)"/>
<path d="M0 0 C0.66 0.33 1.32 0.66 2 1 C-1.91433164 6.07622259 -5.85915736 11.10627688 -10 16 C-10.99 15.67 -11.98 15.34 -13 15 C-12.31292969 14.25234375 -11.62585938 13.5046875 -10.91796875 12.734375 C-10.0077189 11.73966898 -9.09756787 10.74487252 -8.1875 9.75 C-7.73568359 9.25886719 -7.28386719 8.76773438 -6.81835938 8.26171875 C-4.39181973 5.60492352 -2.09650029 2.92534924 0 0 Z " fill="#09709C" transform="translate(999,875)"/>
<path d="M0 0 C3.60890751 3.46838368 6.68811913 7.03446898 9.6875 11.0625 C10.83798828 12.59583984 10.83798828 12.59583984 12.01171875 14.16015625 C13.58870912 16.41255703 14.87979648 18.50200606 16 21 C11.04045303 17.37106319 7.96587318 13.34767221 4.61328125 8.20703125 C3.02448945 5.76760543 3.02448945 5.76760543 0 4 C0 2.68 0 1.36 0 0 Z " fill="#09171D" transform="translate(1585,789)"/>
<path d="M0 0 C0.66 0.33 1.32 0.66 2 1 C-3.67849492 5.11690882 -9.74645 8.68002031 -17 8 C-14.26965065 5.26965065 -11.02687784 4.21336269 -7.5 2.8125 C-6.81035156 2.52697266 -6.12070313 2.24144531 -5.41015625 1.94726562 C-3.63095824 1.23454595 -1.81682212 0.6104689 0 0 Z " fill="#207BA4" transform="translate(1904,948)"/>
<path d="M0 0 C5.63470383 -0.5497272 8.38987758 1.04952165 13 4 C13 4.99 13 5.98 13 7 C8.1725201 5.58707905 4.2837641 3.57025846 0 1 C0 0.67 0 0.34 0 0 Z " fill="#4C7C95" transform="translate(1617,938)"/>
<path d="M0 0 C0.66 0 1.32 0 2 0 C2 0.66 2 1.32 2 2 C2.87398438 2.36738281 2.87398438 2.36738281 3.765625 2.7421875 C6.36302236 4.20435874 7.83975831 5.84740414 9.75 8.125 C10.36359375 8.84945312 10.9771875 9.57390625 11.609375 10.3203125 C12.29773438 11.15175781 12.29773438 11.15175781 13 12 C12.67 12.66 12.34 13.32 12 14 C7.0764464 10.12642613 3.40950648 6.26923729 0 1 C0 0.67 0 0.34 0 0 Z " fill="#08648B" transform="translate(491,875)"/>
<path d="M0 0 C3.88701516 1.29567172 4.81212435 3.07803051 7.1875 6.375 C7.90292969 7.35210938 8.61835937 8.32921875 9.35546875 9.3359375 C11 12 11 12 11 15 C6.08347771 11.34119271 2.75176098 7.5156979 0 2 C0 1.34 0 0.68 0 0 Z " fill="#164A60" transform="translate(580,803)"/>
<path d="M0 0 C0.66 0 1.32 0 2 0 C0.56691865 3.95906817 -1.33141949 7.28718181 -3.625 10.8125 C-4.57246094 12.27623047 -4.57246094 12.27623047 -5.5390625 13.76953125 C-6.02117187 14.50558594 -6.50328125 15.24164062 -7 16 C-8 13 -8 13 -7.22265625 11.17578125 C-6.1484375 9.45052083 -5.07421875 7.72526042 -4 6 C-3.34 6 -2.68 6 -2 6 C-1.855625 5.38125 -1.71125 4.7625 -1.5625 4.125 C-1 2 -1 2 0 0 Z " fill="#29637F" transform="translate(2029,835)"/>
<path d="M0 0 C1.875 0.6875 1.875 0.6875 4 2 C4.71727778 3.64551962 5.38325228 5.31422289 6 7 C6.495 7.474375 6.99 7.94875 7.5 8.4375 C9.62717155 10.6533037 10.15956851 13.09081407 11 16 C6.50683005 11.90328622 3.02186027 7.28565938 0 2 C0 1.34 0 0.68 0 0 Z " fill="#22556D" transform="translate(1513,838)"/>
<path d="M0 0 C-3.40858586 3.40858586 -8.32201465 3.93008394 -13 4.125 C-13.66 4.08375 -14.32 4.0425 -15 4 C-15 3.34 -15 2.68 -15 2 C-12.87707704 1.47076428 -10.75157949 0.95184623 -8.625 0.4375 C-7.44164062 0.14746094 -6.25828125 -0.14257812 -5.0390625 -0.44140625 C-2 -1 -2 -1 0 0 Z " fill="#1D769E" transform="translate(1321,963)"/>
<path d="M0 0 C4.99455809 1.27767765 7.61297811 3.12911784 11 7 C11.33 7.66 11.66 8.32 12 9 C8.98472262 7.59422879 6.4052059 5.93873852 3.75 3.9375 C3.04359375 3.41027344 2.3371875 2.88304687 1.609375 2.33984375 C1.07828125 1.89769531 0.5471875 1.45554687 0 1 C0 0.67 0 0.34 0 0 Z " fill="#15475D" transform="translate(1053,916)"/>
<path d="M0 0 C4.20969919 1.50346399 5.91860139 4.14555814 8 8 C7.60546875 10.1953125 7.60546875 10.1953125 7 12 C5.82767315 10.3790787 4.6622923 8.75313167 3.5 7.125 C2.8503125 6.22007812 2.200625 5.31515625 1.53125 4.3828125 C0 2 0 2 0 0 Z " fill="#0B597A" transform="translate(483,863)"/>
<path d="M0 0 C1.74325447 2.6148817 2.41587957 4.0053433 3.125 6.9375 C3.29257813 7.60652344 3.46015625 8.27554687 3.6328125 8.96484375 C4 11 4 11 4 15 C3.34 15 2.68 15 2 15 C0.2520497 9.75614911 -0.19392201 5.52677733 0 0 Z " fill="#567180" transform="translate(2069,489)"/>
<path d="M0 0 C4.83628305 0.99043705 9.47618873 1.95698846 14 4 C14 4.33 14 4.66 14 5 C9.02906176 4.58846263 4.55491614 4.20399168 0 2 C0 1.34 0 0.68 0 0 Z " fill="#707C87" transform="translate(1872,267)"/>
<path d="M0 0 C0.99 0.33 1.98 0.66 3 1 C-0.63 4.3 -4.26 7.6 -8 11 C-8.66 10.67 -9.32 10.34 -10 10 C-7.32654333 6.33637419 -4.92461366 4.22748343 -1 2 C-0.67 1.34 -0.34 0.68 0 0 Z " fill="#1B5873" transform="translate(1973,903)"/>
<path d="M0 0 C0.66 0 1.32 0 2 0 C5.38371669 4.4135435 6.55504054 9.72231121 8 15 C5.31874582 12.61753661 3.88576541 10.1454496 2.3125 6.9375 C1.87550781 6.05964844 1.43851562 5.18179688 0.98828125 4.27734375 C0 2 0 2 0 0 Z " fill="#0F526F" transform="translate(472,843)"/>
<path d="M0 0 C0.66 0 1.32 0 2 0 C0.67231025 5.79355528 -1.66544904 10.0999919 -5 15 C-6 12 -6 12 -4.78515625 9.08203125 C-4.21667969 8.00308594 -3.64820313 6.92414062 -3.0625 5.8125 C-2.49660156 4.72582031 -1.93070313 3.63914062 -1.34765625 2.51953125 C-0.90292969 1.68808594 -0.45820312 0.85664062 0 0 Z " fill="#1C3B48" transform="translate(1932,765)"/>
<path d="M0 0 C3.45201639 1.47721422 5.64961936 3.43794001 8.25 6.125 C8.95640625 6.84945313 9.6628125 7.57390625 10.390625 8.3203125 C11.18726563 9.15175781 11.18726563 9.15175781 12 10 C11.01 10.33 10.02 10.66 9 11 C7.49703315 9.35687553 5.99769719 7.71042916 4.5 6.0625 C3.6646875 5.14597656 2.829375 4.22945313 1.96875 3.28515625 C0 1 0 1 0 0 Z " fill="#2C353B" transform="translate(1888,405)"/>
<path d="M0 0 C0 0.66 0 1.32 0 2 C-1.26418246 2.69965443 -2.53665402 3.38434763 -3.8125 4.0625 C-4.52019531 4.44535156 -5.22789063 4.82820312 -5.95703125 5.22265625 C-8 6 -8 6 -11 5 C-10.34 5 -9.68 5 -9 5 C-9 4.34 -9 3.68 -9 3 C-3.375 0 -3.375 0 0 0 Z " fill="#195F7D" transform="translate(1373,944)"/>
<path d="M0 0 C0.66 0.33 1.32 0.66 2 1 C-1.12621626 4.39417765 -3.56541027 6.6062718 -8 8 C-6.49776416 3.79373966 -3.71449966 2.26099979 0 0 Z " fill="#1E6787" transform="translate(1409,922)"/>
<path d="M0 0 C3.21524305 1.40844718 5.32183868 3.10344786 7.75 5.625 C8.67039062 6.57246094 8.67039062 6.57246094 9.609375 7.5390625 C10.29773438 8.26222656 10.29773438 8.26222656 11 9 C10.67 9.99 10.34 10.98 10 12 C8.33032474 10.19019128 6.66417692 8.3773524 5 6.5625 C4.28457031 5.7880957 4.28457031 5.7880957 3.5546875 4.99804688 C0 1.11328125 0 1.11328125 0 0 Z " fill="#131618" transform="translate(960,306)"/>
<path d="M0 0 C-1.35513665 4.06540996 -3.30796918 4.97300269 -7 7 C-9.19921875 6.609375 -9.19921875 6.609375 -11 6 C-9.54550599 4.9944239 -8.08627557 3.99569565 -6.625 3 C-5.40683594 2.1646875 -5.40683594 2.1646875 -4.1640625 1.3125 C-2 0 -2 0 0 0 Z " fill="#0071A1" transform="translate(958,916)"/>
<path d="M0 0 C0.33 0 0.66 0 1 0 C1 3.96 1 7.92 1 12 C1.66 12 2.32 12 3 12 C2.67 13.32 2.34 14.64 2 16 C1.34 16 0.68 16 0 16 C0 10.72 0 5.44 0 0 Z " fill="#314049" transform="translate(1024,464)"/>
<path d="M0 0 C-2.3129482 2.3129482 -3.47904875 2.49580975 -6.625 3.125 C-7.44226562 3.29257812 -8.25953125 3.46015625 -9.1015625 3.6328125 C-10.04128906 3.81457031 -10.04128906 3.81457031 -11 4 C-11 3.34 -11 2.68 -11 2 C-7.17010894 0.19769832 -4.21878192 -0.19622241 0 0 Z " fill="#196180" transform="translate(1357,952)"/>
<path d="M0 0 C0.66 0 1.32 0 2 0 C1.54917531 1.46067199 1.08906463 2.91848032 0.625 4.375 C0.36976563 5.18710937 0.11453125 5.99921875 -0.1484375 6.8359375 C-1 9 -1 9 -3 11 C-2.53199289 6.94393835 -2.12046792 3.53411321 0 0 Z " fill="#316C86" transform="translate(2049,796)"/>
<path d="M0 0 C1.77174819 0.08723378 3.54247377 0.19541655 5.3125 0.3125 C6.29863281 0.37050781 7.28476562 0.42851563 8.30078125 0.48828125 C11.24384457 1.04622813 12.18182999 1.68540132 14 4 C9.03083364 3.48594831 4.70973649 2.76615118 0 1 C0 0.67 0 0.34 0 0 Z " fill="#374C59" transform="translate(625,625)"/>
<path d="M0 0 C3.63559661 3.43361902 6.36113346 6.7973607 9 11 C8.01 11 7.02 11 6 11 C4.39453125 9.35546875 4.39453125 9.35546875 2.8125 7.1875 C2.28269531 6.47980469 1.75289062 5.77210938 1.20703125 5.04296875 C0 3 0 3 0 0 Z " fill="#1F2326" transform="translate(971,316)"/>
<path d="M0 0 C4.7517398 0.43197635 6.92000054 1.32769295 10 5 C5.75354935 5 3.61475228 3.18249194 0 1 C0 0.67 0 0.34 0 0 Z " fill="#005A82" transform="translate(551,929)"/>
<path d="M0 0 C6.75 -0.125 6.75 -0.125 9 1 C9 1.99 9 2.98 9 4 C6.03 3.01 3.06 2.02 0 1 C0 0.67 0 0.34 0 0 Z " fill="#42748F" transform="translate(1643,951)"/>
<path d="M0 0 C-3.1254959 2.64465038 -6.08788267 3.84414715 -10 5 C-9 2 -9 2 -7.25 0.8125 C-4.70039426 -0.10819096 -2.69076919 -0.14948718 0 0 Z " fill="#185C7C" transform="translate(1915,945)"/>
<path d="M0 0 C3.59391114 1.33488128 6.75490696 2.96022723 10 5 C8.3125 5.6875 8.3125 5.6875 6 6 C3.3125 4.75 3.3125 4.75 1 3 C0.67 2.01 0.34 1.02 0 0 Z " fill="#0F2937" transform="translate(1644,846)"/>
<path d="M0 0 C0.33 1.32 0.66 2.64 1 4 C0.01 4.33 -0.98 4.66 -2 5 C-2.33 6.65 -2.66 8.3 -3 10 C-3.66 10 -4.32 10 -5 10 C-3.84414715 6.08788267 -2.64465038 3.1254959 0 0 Z " fill="#59626B" transform="translate(489,349)"/>
<path d="M0 0 C1.43836751 0.11458693 2.87570966 0.24209116 4.3125 0.375 C5.51326172 0.47941406 5.51326172 0.47941406 6.73828125 0.5859375 C9 1 9 1 12 3 C7.45194365 3.17835515 4.1205746 2.99785435 0 1 C0 0.67 0 0.34 0 0 Z " fill="#727E89" transform="translate(1860,264)"/>
<path d="M0 0 C1.43655854 -0.08131463 2.8744483 -0.13933559 4.3125 -0.1875 C5.51326172 -0.23970703 5.51326172 -0.23970703 6.73828125 -0.29296875 C9.47851584 0.06198392 10.29171079 0.89366282 12 3 C3.96428571 2.19642857 3.96428571 2.19642857 0 0 Z " fill="#1E5875" transform="translate(1690,967)"/>
<path d="M0 0 C2.31 0 4.62 0 7 0 C7.33 1.32 7.66 2.64 8 4 C2.25 2.25 2.25 2.25 0 0 Z " fill="#457188" transform="translate(1630,945)"/>
<path d="M0 0 C0.66 0.33 1.32 0.66 2 1 C-0.97 4.96 -0.97 4.96 -4 9 C-4.33 8.01 -4.66 7.02 -5 6 C-3.59554165 3.7363436 -1.8032087 1.9791315 0 0 Z " fill="#095D81" transform="translate(999,875)"/>
<path d="M0 0 C3.39417765 3.12621626 5.6062718 5.56541027 7 10 C5.82174642 9.09827532 4.65768423 8.17798498 3.5 7.25 C2.8503125 6.73953125 2.200625 6.2290625 1.53125 5.703125 C0 4 0 4 0 0 Z " fill="#152E3B" transform="translate(1585,789)"/>
<path d="M0 0 C1.98 0.99 1.98 0.99 4 2 C4 2.99 4 3.98 4 5 C3.34 5 2.68 5 2 5 C1.34 5.99 0.68 6.98 0 8 C0 5.36 0 2.72 0 0 Z " fill="#15303D" transform="translate(1051,791)"/>
<path d="M0 0 C-2.6855594 2.6855594 -5.37621328 3.06049974 -9 4 C-9.33 3.34 -9.66 2.68 -10 2 C-6.49223216 0.39644899 -3.85645121 -0.22036864 0 0 Z " fill="#0A3C51" transform="translate(862,853)"/>
<path d="M0 0 C3.73487777 0.4979837 5.81237635 0.87491756 9 3 C9 3.66 9 4.32 9 5 C5.22454612 3.90931332 2.52956528 3.0916909 0 0 Z " fill="#0B445C" transform="translate(638,852)"/>
<path d="M0 0 C0.66 0.33 1.32 0.66 2 1 C0.29374499 3.78388975 -0.47626739 4.85384206 -3.6875 5.75 C-4.8321875 5.87375 -4.8321875 5.87375 -6 6 C-4 4 -2 2 0 0 Z " fill="#5E6871" transform="translate(536,300)"/>
<path d="M0 0 C3.91211733 1.15585285 6.8745041 2.35534962 10 5 C3.47692308 4.50769231 3.47692308 4.50769231 1.0625 1.9375 C0.711875 1.298125 0.36125 0.65875 0 0 Z " fill="#062A39" transform="translate(629,847)"/>
<path d="M0 0 C3.35595828 0.59927826 5.37801226 1.84622436 8 4 C7.67 4.99 7.34 5.98 7 7 C5.83040013 6.02433888 4.66438823 5.044375 3.5 4.0625 C2.8503125 3.51722656 2.200625 2.97195313 1.53125 2.41015625 C1.0259375 1.94480469 0.520625 1.47945312 0 1 C0 0.67 0 0.34 0 0 Z " fill="#183A4A" transform="translate(1615,826)"/>
<path d="M0 0 C2.97 0.99 5.94 1.98 9 3 C9 3.33 9 3.66 9 4 C2.25 3.125 2.25 3.125 0 2 C0 1.34 0 0.68 0 0 Z " fill="#707B86" transform="translate(882,274)"/>
<path d="M0 0 C-3.00617269 3.00617269 -5.82381598 2.59585316 -10 3 C-6.84439813 -0.15560187 -4.30999015 -1.43666338 0 0 Z " fill="#474E56" transform="translate(1114,268)"/>
</svg>
